<svg xmlns="http://www.w3.org/2000/svg" viewBox="0 0 880 470" width="880" height="470" font-family="ui-monospace,SFMono-Regular,Menlo,Consolas,monospace"><style>.ln{stroke:#bdb7aa;stroke-width:1;fill:none}.fl{stroke:#ff7040;stroke-width:1.5;fill:none;stroke-dasharray:4 7;animation:f 1.6s linear infinite}@keyframes f{to{stroke-dashoffset:-22}}@media (prefers-reduced-motion:reduce){.fl{animation:none}}text{fill:#ede9e0;font-size:12px}.m{fill:#8d887d;font-size:11px}.a{fill:#ff7040}</style><rect width="880" height="470" fill="#191816" stroke="#2f2c27"/><text x="40" y="78" style="font-family:Georgia,'Times New Roman',serif;font-size:46px;fill:#ede9e0">Dmitry Rychkov</text><text x="40" y="108" class="m" style="font-size:13px">SENIOR PYTHON · LLM SYSTEMS AND BACKEND · 8 YEARS</text><text x="40" y="142" class="m">MODELS · ANY PROVIDER</text><rect x="44.0" y="150" width="192.0" height="30" fill="#11100e" stroke="#ede9e0"/><text x="140.0" y="169" text-anchor="middle">GPT</text><path class="ln" d="M140.0 180 V212"/><rect x="244.0" y="150" width="192.0" height="30" fill="#11100e" stroke="#ede9e0"/><text x="340.0" y="169" text-anchor="middle">Claude</text><path class="ln" d="M340.0 180 V212"/><path class="fl" style="animation-delay:-0.3s" d="M340.0 180 V212"/><rect x="444.0" y="150" width="192.0" height="30" fill="#11100e" stroke="#ede9e0"/><text x="540.0" y="169" text-anchor="middle">Gemini</text><path class="ln" d="M540.0 180 V212"/><rect x="644.0" y="150" width="192.0" height="30" fill="#11100e" stroke="#ede9e0"/><text x="740.0" y="169" text-anchor="middle">open-source</text><path class="ln" d="M740.0 180 V212"/><rect x="40" y="212" width="800" height="34" fill="#11100e" stroke="#ede9e0"/><text x="54" y="233">model layer: fallback · cost/quality routing · context compression</text><path class="ln" d="M440.0 246 V282"/><path class="fl" d="M440.0 246 V282"/><rect x="330.0" y="282" width="220" height="48" fill="#2e1f18" stroke="#ff7040"/><text x="346.0" y="303" class="a">orchestrator</text><text x="346.0" y="319" class="m">typed contracts · retries</text><path class="ln" d="M440.0 330 C440.0 360 120.0 354 120.0 382"/><path class="fl" style="animation-delay:0.00s" d="M440.0 330 C440.0 360 120.0 354 120.0 382"/><rect x="45.0" y="382" width="150.0" height="44" fill="#11100e" stroke="#ede9e0"/><text x="120.0" y="401" text-anchor="middle">agent</text><text x="120.0" y="417" text-anchor="middle" class="m">plan</text><path class="ln" d="M440.0 330 C440.0 360 280.0 354 280.0 382"/><path class="fl" style="animation-delay:-0.35s" d="M440.0 330 C440.0 360 280.0 354 280.0 382"/><rect x="205.0" y="382" width="150.0" height="44" fill="#11100e" stroke="#ede9e0"/><text x="280.0" y="401" text-anchor="middle">agent</text><text x="280.0" y="417" text-anchor="middle" class="m">generate</text><path class="ln" d="M440.0 330 C440.0 360 440.0 354 440.0 382"/><path class="fl" style="animation-delay:-0.70s" d="M440.0 330 C440.0 360 440.0 354 440.0 382"/><rect x="365.0" y="382" width="150.0" height="44" fill="#11100e" stroke="#ede9e0"/><text x="440.0" y="401" text-anchor="middle">agent</text><text x="440.0" y="417" text-anchor="middle" class="m">check</text><path class="ln" d="M440.0 330 C440.0 360 600.0 354 600.0 382"/><path class="fl" style="animation-delay:-1.05s" d="M440.0 330 C440.0 360 600.0 354 600.0 382"/><rect x="525.0" y="382" width="150.0" height="44" fill="#11100e" stroke="#ede9e0"/><text x="600.0" y="401" text-anchor="middle">tools</text><text x="600.0" y="417" text-anchor="middle" class="m">API · DB</text><path class="ln" d="M440.0 330 C440.0 360 760.0 354 760.0 382"/><path class="fl" style="animation-delay:-1.40s" d="M440.0 330 C440.0 360 760.0 354 760.0 382"/><rect x="685.0" y="382" width="150.0" height="44" fill="#2e1f18" stroke="#ff7040"/><text x="760.0" y="401" text-anchor="middle" class="a">human</text><text x="760.0" y="417" text-anchor="middle" class="m">approve</text><text x="40" y="446" class="m">FIG. 1 — MULTI-AGENT PIPELINE</text><text x="840" y="446" class="m" text-anchor="end">dmitryrychkova.github.io</text></svg>